{
.appVersion = "3151";
.formatVersion = 3;
axes = (
{
name = Frequency;
tag = FREQ;
},
{
name = Amplitude;
tag = AMPL;
}
);
date = "2022-03-17 01:09:09 +0000";
familyName = "TMT Music Box";
fontMaster = (
{
axesValues = (
-100,
0
);
customParameters = (
{
name = "Master Icon Glyph Name";
value = A;
}
);
iconName = Bold_Extended;
id = "17BBE581-D9AE-4474-AE3B-3DD1F1A1E441";
metricValues = (
{
pos = 700;
},
{
}
);
name = "Bass Soft";
},
{
axesValues = (
-100,
100
);
customParameters = (
{
name = "Master Icon Glyph Name";
value = A;
}
);
iconName = Bold_Extended;
id = "270F6D2A-3FB5-4830-B0FD-3E22F3EDE89C";
metricValues = (
{
pos = 700;
},
{
}
);
name = "Bass Loud";
},
{
axesValues = (
0,
0
);
customParameters = (
{
name = "Master Icon Glyph Name";
value = A;
}
);
iconName = Bold_Condensed;
id = "44B3CF47-E9D7-4BB1-BF2E-5EBDFF91057D";
metricValues = (
{
pos = 700;
},
{
}
);
name = "Mid Soft";
},
{
axesValues = (
0,
100
);
customParameters = (
{
name = "Master Icon Glyph Name";
value = A;
}
);
iconName = Bold_Condensed;
id = "0A489E87-4003-4383-ABB5-6AA2A9FB3485";
metricValues = (
{
pos = 700;
},
{
}
);
name = "Mid Loud";
},
{
axesValues = (
100,
0
);
customParameters = (
{
name = "Master Icon Glyph Name";
value = A;
}
);
iconName = Bold_Condensed;
id = m01;
metricValues = (
{
pos = 700;
},
{
}
);
name = "Treble Soft";
},
{
axesValues = (
100,
100
);
customParameters = (
{
name = "Master Icon Glyph Name";
value = A;
}
);
iconName = Bold_Condensed;
id = "1C34913A-ED8B-4606-9734-2876B967C373";
metricValues = (
{
pos = 700;
},
{
}
);
name = "Treble Loud";
}
);
glyphs = (
{
glyphname = A;
lastChange = "2023-09-12 14:55:01 +0000";
layers = (
{
layerId = m01;
shapes = (
{
closed = 1;
nodes = (
(370,0,l),
(370,335,l),
(380,335,l),
(380,0,l),
(725,0,l),
(725,700,l),
(25,700,l),
(25,0,l)
);
},
{
closed = 1;
nodes = (
(370,690,l),
(380,690,l),
(380,345,l),
(370,345,l)
);
}
);
width = 750;
},
{
layerId = "17BBE581-D9AE-4474-AE3B-3DD1F1A1E441";
shapes = (
{
closed = 1;
nodes = (
(35,0,l),
(35,10,l),
(715,10,l),
(715,0,l),
(725,0,l),
(725,700,l),
(25,700,l),
(25,0,l)
);
},
{
closed = 1;
nodes = (
(35,355,l),
(715,355,l),
(715,345,l),
(35,345,l)
);
}
);
width = 750;
},
{
layerId = "44B3CF47-E9D7-4BB1-BF2E-5EBDFF91057D";
shapes = (
{
closed = 1;
nodes = (
(370,0,l),
(370,10,l),
(380,10,l),
(380,0,l),
(725,0,l),
(725,700,l),
(25,700,l),
(25,0,l)
);
},
{
closed = 1;
nodes = (
(370,355,l),
(380,355,l),
(380,345,l),
(370,345,l)
);
}
);
width = 750;
},
{
layerId = "270F6D2A-3FB5-4830-B0FD-3E22F3EDE89C";
shapes = (
{
closed = 1;
nodes = (
(125,0,l),
(125,100,l),
(625,100,l),
(625,0,l),
(725,0,l),
(725,700,l),
(25,700,l),
(25,0,l)
);
},
{
closed = 1;
nodes = (
(125,400,l),
(625,400,l),
(625,300,l),
(125,300,l)
);
}
);
width = 750;
},
{
layerId = "0A489E87-4003-4383-ABB5-6AA2A9FB3485";
shapes = (
{
closed = 1;
nodes = (
(325,0,l),
(325,100,l),
(425,100,l),
(425,0,l),
(725,0,l),
(725,700,l),
(25,700,l),
(25,0,l)
);
},
{
closed = 1;
nodes = (
(325,400,l),
(425,400,l),
(425,300,l),
(325,300,l)
);
}
);
width = 750;
},
{
layerId = "1C34913A-ED8B-4606-9734-2876B967C373";
shapes = (
{
closed = 1;
nodes = (
(325,0,l),
(325,200,l),
(425,200,l),
(425,0,l),
(725,0,l),
(725,700,l),
(25,700,l),
(25,0,l)
);
},
{
closed = 1;
nodes = (
(325,600,l),
(425,600,l),
(425,300,l),
(325,300,l)
);
}
);
width = 750;
}
);
unicode = (65,97);
},
{
glyphname = B;
lastChange = "2023-09-13 00:37:05 +0000";
layers = (
{
background = {
shapes = (
{
closed = 1;
nodes = (
(370,0,l),
(370,345,l),
(380,345,l),
(380,0,l),
(725,0,l),
(725,700,l),
(25,700,l),
(25,0,l)
);
},
{
closed = 1;
nodes = (
(370,690,l),
(380,690,l),
(380,355,l),
(370,355,l)
);
}
);
};
layerId = m01;
shapes = (
{
closed = 1;
nodes = (
(725,0,l),
(725,10,l),
(715,10,l),
(715,690,l),
(725,690,l),
(725,700,l),
(25,700,l),
(25,0,l)
);
},
{
closed = 1;
nodes = (
(370,345,l),
(380,345,l),
(380,10,l),
(370,10,l)
);
},
{
closed = 1;
nodes = (
(370,690,l),
(380,690,l),
(380,355,l),
(370,355,l)
);
}
);
width = 750;
},
{
layerId = "17BBE581-D9AE-4474-AE3B-3DD1F1A1E441";
shapes = (
{
closed = 1;
nodes = (
(725,0,l),
(725,345,l),
(35,345,l),
(35,355,l),
(725,355,l),
(725,700,l),
(25,700,l),
(25,0,l)
);
},
{
closed = 1;
nodes = (
(35,335,l),
(715,335,l),
(715,325,l),
(35,325,l)
);
},
{
closed = 1;
nodes = (
(35,375,l),
(715,375,l),
(715,365,l),
(35,365,l)
);
}
);
width = 750;
},
{
layerId = "44B3CF47-E9D7-4BB1-BF2E-5EBDFF91057D";
shapes = (
{
closed = 1;
nodes = (
(725,0,l),
(725,345,l),
(715,345,l),
(715,355,l),
(725,355,l),
(725,700,l),
(25,700,l),
(25,0,l)
);
},
{
closed = 1;
nodes = (
(370,335,l),
(380,335,l),
(380,325,l),
(370,325,l)
);
},
{
closed = 1;
nodes = (
(370,375,l),
(380,375,l),
(380,365,l),
(370,365,l)
);
}
);
width = 750;
},
{
layerId = "270F6D2A-3FB5-4830-B0FD-3E22F3EDE89C";
shapes = (
{
closed = 1;
nodes = (
(725,0,l),
(725,300,l),
(125,300,l),
(125,400,l),
(725,400,l),
(725,700,l),
(25,700,l),
(25,0,l)
);
},
{
closed = 1;
nodes = (
(125,200,l),
(625,200,l),
(625,100,l),
(125,100,l)
);
},
{
closed = 1;
nodes = (
(125,600,l),
(625,600,l),
(625,500,l),
(125,500,l)
);
}
);
width = 750;
},
{
layerId = "0A489E87-4003-4383-ABB5-6AA2A9FB3485";
shapes = (
{
closed = 1;
nodes = (
(725,0,l),
(725,300,l),
(625,300,l),
(625,400,l),
(725,400,l),
(725,700,l),
(25,700,l),
(25,0,l)
);
},
{
closed = 1;
nodes = (
(325,200,l),
(425,200,l),
(425,100,l),
(325,100,l)
);
},
{
closed = 1;
nodes = (
(325,600,l),
(425,600,l),
(425,500,l),
(325,500,l)
);
}
);
width = 750;
},
{
layerId = "1C34913A-ED8B-4606-9734-2876B967C373";
shapes = (
{
closed = 1;
nodes = (
(725,0,l),
(725,100,l),
(625,100,l),
(625,600,l),
(725,600,l),
(725,700,l),
(25,700,l),
(25,0,l)
);
},
{
closed = 1;
nodes = (
(325,300,l),
(425,300,l),
(425,100,l),
(325,100,l)
);
},
{
closed = 1;
nodes = (
(325,600,l),
(425,600,l),
(425,400,l),
(325,400,l)
);
}
);
width = 750;
}
);
unicode = (66,98);
},
{
glyphname = C;
lastChange = "2023-09-12 14:45:08 +0000";
layers = (
{
layerId = m01;
shapes = (
{
closed = 1;
nodes = (
(725,0,l),
(725,10,l),
(715,10,l),
(715,690,l),
(725,690,l),
(725,700,l),
(25,700,l),
(25,0,l)
);
}
);
width = 750;
},
{
layerId = "17BBE581-D9AE-4474-AE3B-3DD1F1A1E441";
shapes = (
{
closed = 1;
nodes = (
(725,0,l),
(725,345,l),
(35,345,l),
(35,355,l),
(725,355,l),
(725,700,l),
(25,700,l),
(25,0,l)
);
}
);
width = 750;
},
{
layerId = "44B3CF47-E9D7-4BB1-BF2E-5EBDFF91057D";
shapes = (
{
closed = 1;
nodes = (
(725,0,l),
(725,345,l),
(715,345,l),
(715,355,l),
(725,355,l),
(725,700,l),
(25,700,l),
(25,0,l)
);
}
);
width = 750;
},
{
layerId = "270F6D2A-3FB5-4830-B0FD-3E22F3EDE89C";
shapes = (
{
closed = 1;
nodes = (
(725,0,l),
(725,300,l),
(125,300,l),
(125,400,l),
(725,400,l),
(725,700,l),
(25,700,l),
(25,0,l)
);
}
);
width = 750;
},
{
layerId = "0A489E87-4003-4383-ABB5-6AA2A9FB3485";
shapes = (
{
closed = 1;
nodes = (
(725,0,l),
(725,300,l),
(625,300,l),
(625,400,l),
(725,400,l),
(725,700,l),
(25,700,l),
(25,0,l)
);
}
);
width = 750;
},
{
layerId = "1C34913A-ED8B-4606-9734-2876B967C373";
shapes = (
{
closed = 1;
nodes = (
(725,0,l),
(725,100,l),
(625,100,l),
(625,600,l),
(725,600,l),
(725,700,l),
(25,700,l),
(25,0,l)
);
}
);
width = 750;
}
);
unicode = (67,99);
},
{
glyphname = D;
lastChange = "2023-09-12 14:45:59 +0000";
layers = (
{
layerId = m01;
shapes = (
{
closed = 1;
nodes = (
(715,0,l),
(715,345,l),
(725,345,l),
(725,355,l),
(715,355,l),
(715,700,l),
(25,700,l),
(25,0,l)
);
},
{
closed = 1;
nodes = (
(360,690,l),
(370,690,l),
(370,10,l),
(360,10,l)
);
}
);
width = 750;
},
{
layerId = "17BBE581-D9AE-4474-AE3B-3DD1F1A1E441";
shapes = (
{
closed = 1;
nodes = (
(35,0,l),
(35,10,l),
(725,10,l),
(725,690,l),
(35,690,l),
(35,700,l),
(25,700,l),
(25,0,l)
);
},
{
closed = 1;
nodes = (
(35,355,l),
(715,355,l),
(715,345,l),
(35,345,l)
);
}
);
width = 750;
},
{
layerId = "44B3CF47-E9D7-4BB1-BF2E-5EBDFF91057D";
shapes = (
{
closed = 1;
nodes = (
(715,0,l),
(715,10,l),
(725,10,l),
(725,690,l),
(715,690,l),
(715,700,l),
(25,700,l),
(25,0,l)
);
},
{
closed = 1;
nodes = (
(360,355,l),
(370,355,l),
(370,345,l),
(360,345,l)
);
}
);
width = 750;
},
{
layerId = "270F6D2A-3FB5-4830-B0FD-3E22F3EDE89C";
shapes = (
{
closed = 1;
nodes = (
(125,0,l),
(125,100,l),
(725,100,l),
(725,600,l),
(125,600,l),
(125,700,l),
(25,700,l),
(25,0,l)
);
},
{
closed = 1;
nodes = (
(125,400,l),
(625,400,l),
(625,300,l),
(125,300,l)
);
}
);
width = 750;
},
{
layerId = "0A489E87-4003-4383-ABB5-6AA2A9FB3485";
shapes = (
{
closed = 1;
nodes = (
(625,0,l),
(625,100,l),
(725,100,l),
(725,600,l),
(625,600,l),
(625,700,l),
(25,700,l),
(25,0,l)
);
},
{
closed = 1;
nodes = (
(315,400,l),
(415,400,l),
(415,300,l),
(315,300,l)
);
}
);
width = 750;
},
{
layerId = "1C34913A-ED8B-4606-9734-2876B967C373";
shapes = (
{
closed = 1;
nodes = (
(625,0,l),
(625,300,l),
(725,300,l),
(725,400,l),
(625,400,l),
(625,700,l),
(25,700,l),
(25,0,l)
);
},
{
closed = 1;
nodes = (
(315,600,l),
(415,600,l),
(415,100,l),
(315,100,l)
);
}
);
width = 750;
}
);
unicode = (68,100);
},
{
glyphname = E;
lastChange = "2023-09-12 14:54:20 +0000";
layers = (
{
layerId = m01;
shapes = (
{
closed = 1;
nodes = (
(725,0,l),
(725,10,l),
(715,10,l),
(715,345,l),
(725,345,l),
(725,355,l),
(715,355,l),
(715,690,l),
(725,690,l),
(725,700,l),
(25,700,l),
(25,0,l)
);
}
);
width = 750;
},
{
layerId = "17BBE581-D9AE-4474-AE3B-3DD1F1A1E441";
shapes = (
{
closed = 1;
nodes = (
(725,0,l),
(725,335,l),
(35,335,l),
(35,345,l),
(725,345,l),
(725,355,l),
(35,355,l),
(35,365,l),
(725,365,l),
(725,700,l),
(25,700,l),
(25,0,l)
);
}
);
width = 750;
},
{
layerId = "44B3CF47-E9D7-4BB1-BF2E-5EBDFF91057D";
shapes = (
{
closed = 1;
nodes = (
(725,0,l),
(725,335,l),
(715,335,l),
(715,345,l),
(725,345,l),
(725,355,l),
(715,355,l),
(715,365,l),
(725,365,l),
(725,700,l),
(25,700,l),
(25,0,l)
);
}
);
width = 750;
},
{
layerId = "270F6D2A-3FB5-4830-B0FD-3E22F3EDE89C";
shapes = (
{
closed = 1;
nodes = (
(725,0,l),
(725,200,l),
(125,200,l),
(125,300,l),
(725,300,l),
(725,400,l),
(125,400,l),
(125,500,l),
(725,500,l),
(725,700,l),
(25,700,l),
(25,0,l)
);
}
);
width = 750;
},
{
layerId = "0A489E87-4003-4383-ABB5-6AA2A9FB3485";
shapes = (
{
closed = 1;
nodes = (
(725,0,l),
(725,200,l),
(625,200,l),
(625,300,l),
(725,300,l),
(725,400,l),
(625,400,l),
(625,500,l),
(725,500,l),
(725,700,l),
(25,700,l),
(25,0,l)
);
}
);
width = 750;
},
{
layerId = "1C34913A-ED8B-4606-9734-2876B967C373";
shapes = (
{
closed = 1;
nodes = (
(725,0,l),
(725,100,l),
(625,100,l),
(625,300,l),
(725,300,l),
(725,400,l),
(625,400,l),
(625,600,l),
(725,600,l),
(725,700,l),
(25,700,l),
(25,0,l)
);
}
);
width = 750;
}
);
unicode = (69,101);
},
{
glyphname = F;
lastChange = "2023-09-13 02:28:09 +0000";
layers = (
{
layerId = m01;
shapes = (
{
closed = 1;
nodes = (
(715,0,l),
(715,345,l),
(725,345,l),
(725,355,l),
(715,355,l),
(715,690,l),
(725,690,l),
(725,700,l),
(25,700,l),
(25,0,l)
);
}
);
width = 750;
},
{
layerId = "17BBE581-D9AE-4474-AE3B-3DD1F1A1E441";
shapes = (
{
closed = 1;
nodes = (
(35,0,l),
(35,20,l),
(725,20,l),
(725,345,l),
(35,345,l),
(35,355,l),
(725,355,l),
(725,700,l),
(25,700,l),
(25,0,l)
);
}
);
width = 750;
},
{
layerId = "44B3CF47-E9D7-4BB1-BF2E-5EBDFF91057D";
shapes = (
{
closed = 1;
nodes = (
(715,0,l),
(715,20,l),
(725,20,l),
(725,345,l),
(715,345,l),
(715,355,l),
(725,355,l),
(725,700,l),
(25,700,l),
(25,0,l)
);
}
);
width = 750;
},
{
layerId = "270F6D2A-3FB5-4830-B0FD-3E22F3EDE89C";
shapes = (
{
closed = 1;
nodes = (
(125,0,l),
(125,200,l),
(725,200,l),
(725,300,l),
(125,300,l),
(125,400,l),
(725,400,l),
(725,700,l),
(25,700,l),
(25,0,l)
);
}
);
width = 750;
},
{
layerId = "0A489E87-4003-4383-ABB5-6AA2A9FB3485";
shapes = (
{
closed = 1;
nodes = (
(625,0,l),
(625,200,l),
(725,200,l),
(725,300,l),
(625,300,l),
(625,400,l),
(725,400,l),
(725,700,l),
(25,700,l),
(25,0,l)
);
}
);
width = 750;
},
{
layerId = "1C34913A-ED8B-4606-9734-2876B967C373";
shapes = (
{
closed = 1;
nodes = (
(625,0,l),
(625,300,l),
(725,300,l),
(725,400,l),
(625,400,l),
(625,600,l),
(725,600,l),
(725,700,l),
(25,700,l),
(25,0,l)
);
}
);
width = 750;
}
);
unicode = (70,102);
},
{
glyphname = G;
lastChange = "2023-09-12 14:52:28 +0000";
layers = (
{
layerId = m01;
shapes = (
{
closed = 1;
nodes = (
(725,0,l),
(725,350,l),
(715,350,l),
(715,10,l),
(705,10,l),
(705,690,l),
(725,690,l),
(725,700,l),
(25,700,l),
(25,0,l)
);
}
);
width = 750;
},
{
layerId = "17BBE581-D9AE-4474-AE3B-3DD1F1A1E441";
shapes = (
{
closed = 1;
nodes = (
(725,0,l),
(725,350,l),
(380,350,l),
(380,340,l),
(35,340,l),
(35,360,l),
(725,360,l),
(725,700,l),
(25,700,l),
(25,0,l)
);
}
);
width = 750;
},
{
layerId = "44B3CF47-E9D7-4BB1-BF2E-5EBDFF91057D";
shapes = (
{
closed = 1;
nodes = (
(725,0,l),
(725,350,l),
(715,350,l),
(715,340,l),
(705,340,l),
(705,360,l),
(725,360,l),
(725,700,l),
(25,700,l),
(25,0,l)
);
}
);
width = 750;
},
{
layerId = "270F6D2A-3FB5-4830-B0FD-3E22F3EDE89C";
shapes = (
{
closed = 1;
nodes = (
(725,0,l),
(725,325,l),
(425,325,l),
(425,225,l),
(125,225,l),
(125,425,l),
(725,425,l),
(725,700,l),
(25,700,l),
(25,0,l)
);
}
);
width = 750;
},
{
layerId = "0A489E87-4003-4383-ABB5-6AA2A9FB3485";
shapes = (
{
closed = 1;
nodes = (
(725,0,l),
(725,350,l),
(625,350,l),
(625,250,l),
(525,250,l),
(525,450,l),
(725,450,l),
(725,700,l),
(25,700,l),
(25,0,l)
);
}
);
width = 750;
},
{
layerId = "1C34913A-ED8B-4606-9734-2876B967C373";
shapes = (
{
closed = 1;
nodes = (
(725,0,l),
(725,350,l),
(625,350,l),
(625,100,l),
(525,100,l),
(525,600,l),
(725,600,l),
(725,700,l),
(25,700,l),
(25,0,l)
);
}
);
width = 750;
}
);
unicode = (71,103);
},
{
glyphname = H;
lastChange = "2023-09-12 14:56:03 +0000";
layers = (
{
layerId = m01;
shapes = (
{
closed = 1;
nodes = (
(370,0,l),
(370,345,l),
(380,345,l),
(380,0,l),
(725,0,l),
(725,700,l),
(380,700,l),
(380,355,l),
(370,355,l),
(370,700,l),
(25,700,l),
(25,0,l)
);
}
);
width = 750;
},
{
layerId = "17BBE581-D9AE-4474-AE3B-3DD1F1A1E441";
shapes = (
{
closed = 1;
nodes = (
(35,0,l),
(35,10,l),
(715,10,l),
(715,0,l),
(725,0,l),
(725,700,l),
(715,700,l),
(715,690,l),
(35,690,l),
(35,700,l),
(25,700,l),
(25,0,l)
);
}
);
width = 750;
},
{
layerId = "44B3CF47-E9D7-4BB1-BF2E-5EBDFF91057D";
shapes = (
{
closed = 1;
nodes = (
(370,0,l),
(370,10,l),
(380,10,l),
(380,0,l),
(725,0,l),
(725,700,l),
(380,700,l),
(380,690,l),
(370,690,l),
(370,700,l),
(25,700,l),
(25,0,l)
);
}
);
width = 750;
},
{
layerId = "270F6D2A-3FB5-4830-B0FD-3E22F3EDE89C";
shapes = (
{
closed = 1;
nodes = (
(125,0,l),
(125,100,l),
(625,100,l),
(625,0,l),
(725,0,l),
(725,700,l),
(625,700,l),
(625,600,l),
(125,600,l),
(125,700,l),
(25,700,l),
(25,0,l)
);
}
);
width = 750;
},
{
layerId = "0A489E87-4003-4383-ABB5-6AA2A9FB3485";
shapes = (
{
closed = 1;
nodes = (
(325,0,l),
(325,100,l),
(425,100,l),
(425,0,l),
(725,0,l),
(725,700,l),
(425,700,l),
(425,600,l),
(325,600,l),
(325,700,l),
(25,700,l),
(25,0,l)
);
}
);
width = 750;
},
{
layerId = "1C34913A-ED8B-4606-9734-2876B967C373";
shapes = (
{
closed = 1;
nodes = (
(325,0,l),
(325,300,l),
(425,300,l),
(425,0,l),
(725,0,l),
(725,700,l),
(425,700,l),
(425,400,l),
(325,400,l),
(325,700,l),
(25,700,l),
(25,0,l)
);
}
);
width = 750;
}
);
unicode = (72,104);
},
{
glyphname = I;
lastChange = "2023-09-12 14:56:39 +0000";
layers = (
{
layerId = m01;
shapes = (
{
closed = 1;
nodes = (
(725,0,l),
(725,10,l),
(715,10,l),
(715,690,l),
(725,690,l),
(725,700,l),
(25,700,l),
(25,690,l),
(35,690,l),
(35,10,l),
(25,10,l),
(25,0,l)
);
}
);
width = 750;
},
{
layerId = "17BBE581-D9AE-4474-AE3B-3DD1F1A1E441";
shapes = (
{
closed = 1;
nodes = (
(725,0,l),
(725,345,l),
(380,345,l),
(380,355,l),
(725,355,l),
(725,700,l),
(25,700,l),
(25,355,l),
(370,355,l),
(370,345,l),
(25,345,l),
(25,0,l)
);
}
);
width = 750;
},
{
layerId = "44B3CF47-E9D7-4BB1-BF2E-5EBDFF91057D";
shapes = (
{
closed = 1;
nodes = (
(725,0,l),
(725,345,l),
(715,345,l),
(715,355,l),
(725,355,l),
(725,700,l),
(25,700,l),
(25,355,l),
(35,355,l),
(35,345,l),
(25,345,l),
(25,0,l)
);
}
);
width = 750;
},
{
layerId = "270F6D2A-3FB5-4830-B0FD-3E22F3EDE89C";
shapes = (
{
closed = 1;
nodes = (
(725,0,l),
(725,300,l),
(425,300,l),
(425,400,l),
(725,400,l),
(725,700,l),
(25,700,l),
(25,400,l),
(325,400,l),
(325,300,l),
(25,300,l),
(25,0,l)
);
}
);
width = 750;
},
{
layerId = "0A489E87-4003-4383-ABB5-6AA2A9FB3485";
shapes = (
{
closed = 1;
nodes = (
(725,0,l),
(725,300,l),
(625,300,l),
(625,400,l),
(725,400,l),
(725,700,l),
(25,700,l),
(25,400,l),
(125,400,l),
(125,300,l),
(25,300,l),
(25,0,l)
);
}
);
width = 750;
},
{
layerId = "1C34913A-ED8B-4606-9734-2876B967C373";
shapes = (
{
closed = 1;
nodes = (
(725,0,l),
(725,100,l),
(625,100,l),
(625,600,l),
(725,600,l),
(725,700,l),
(25,700,l),
(25,600,l),
(125,600,l),
(125,100,l),
(25,100,l),
(25,0,l)
);
}
);
width = 750;
}
);
unicode = (73,105);
},
{
glyphname = J;
lastChange = "2023-09-12 14:57:04 +0000";
layers = (
{
layerId = m01;
shapes = (
{
closed = 1;
nodes = (
(725,0,l),
(725,700,l),
(35,700,l),
(35,10,l),
(25,10,l),
(25,0,l)
);
}
);
width = 750;
},
{
layerId = "17BBE581-D9AE-4474-AE3B-3DD1F1A1E441";
shapes = (
{
closed = 1;
nodes = (
(725,0,l),
(725,700,l),
(715,700,l),
(715,680,l),
(25,680,l),
(25,0,l)
);
}
);
width = 750;
},
{
layerId = "44B3CF47-E9D7-4BB1-BF2E-5EBDFF91057D";
shapes = (
{
closed = 1;
nodes = (
(725,0,l),
(725,700,l),
(35,700,l),
(35,680,l),
(25,680,l),
(25,0,l)
);
}
);
width = 750;
},
{
layerId = "270F6D2A-3FB5-4830-B0FD-3E22F3EDE89C";
shapes = (
{
closed = 1;
nodes = (
(725,0,l),
(725,700,l),
(625,700,l),
(625,500,l),
(25,500,l),
(25,0,l)
);
}
);
width = 750;
},
{
layerId = "0A489E87-4003-4383-ABB5-6AA2A9FB3485";
shapes = (
{
closed = 1;
nodes = (
(725,0,l),
(725,700,l),
(125,700,l),
(125,500,l),
(25,500,l),
(25,0,l)
);
}
);
width = 750;
},
{
layerId = "1C34913A-ED8B-4606-9734-2876B967C373";
shapes = (
{
closed = 1;
nodes = (
(725,0,l),
(725,700,l),
(125,700,l),
(125,100,l),
(25,100,l),
(25,0,l)
);
}
);
width = 750;
}
);
unicode = (74,106);
},
{
glyphname = K;
lastChange = "2023-09-12 16:56:26 +0000";
layers = (
{
layerId = m01;
shapes = (
{
closed = 1;
nodes = (
(370,0,l),
(370,345,l),
(380,345,l),
(380,0,l),
(725,0,l),
(725,10,l),
(715,10,l),
(715,690,l),
(725,690,l),
(725,700,l),
(380,700,l),
(380,355,l),
(370,355,l),
(370,700,l),
(25,700,l),
(25,0,l)
);
}
);
width = 750;
},
{
layerId = "17BBE581-D9AE-4474-AE3B-3DD1F1A1E441";
shapes = (
{
closed = 1;
nodes = (
(35,0,l),
(35,10,l),
(715,10,l),
(715,0,l),
(725,0,l),
(725,345,l),
(35,345,l),
(35,355,l),
(725,355,l),
(725,700,l),
(715,700,l),
(715,690,l),
(35,690,l),
(35,700,l),
(25,700,l),
(25,0,l)
);
}
);
width = 750;
},
{
layerId = "44B3CF47-E9D7-4BB1-BF2E-5EBDFF91057D";
shapes = (
{
closed = 1;
nodes = (
(370,0,l),
(370,10,l),
(380,10,l),
(380,0,l),
(725,0,l),
(725,345,l),
(715,345,l),
(715,355,l),
(725,355,l),
(725,700,l),
(380,700,l),
(380,690,l),
(370,690,l),
(370,700,l),
(25,700,l),
(25,0,l)
);
}
);
width = 750;
},
{
layerId = "270F6D2A-3FB5-4830-B0FD-3E22F3EDE89C";
shapes = (
{
closed = 1;
nodes = (
(125,0,l),
(125,100,l),
(625,100,l),
(625,0,l),
(725,0,l),
(725,300,l),
(125,300,l),
(125,400,l),
(725,400,l),
(725,700,l),
(625,700,l),
(625,600,l),
(125,600,l),
(125,700,l),
(25,700,l),
(25,0,l)
);
}
);
width = 750;
},
{
layerId = "0A489E87-4003-4383-ABB5-6AA2A9FB3485";
shapes = (
{
closed = 1;
nodes = (
(325,0,l),
(325,100,l),
(425,100,l),
(425,0,l),
(725,0,l),
(725,300,l),
(625,300,l),
(625,400,l),
(725,400,l),
(725,700,l),
(425,700,l),
(425,600,l),
(325,600,l),
(325,700,l),
(25,700,l),
(25,0,l)
);
}
);
width = 750;
},
{
layerId = "1C34913A-ED8B-4606-9734-2876B967C373";
shapes = (
{
closed = 1;
nodes = (
(325,0,l),
(325,300,l),
(425,300,l),
(425,0,l),
(725,0,l),
(725,100,l),
(625,100,l),
(625,600,l),
(725,600,l),
(725,700,l),
(425,700,l),
(425,400,l),
(325,400,l),
(325,700,l),
(25,700,l),
(25,0,l)
);
}
);
width = 750;
}
);
unicode = (75,107);
},
{
glyphname = L;
lastChange = "2023-09-12 14:59:08 +0000";
layers = (
{
layerId = m01;
shapes = (
{
closed = 1;
nodes = (
(725,0,l),
(725,10,l),
(715,10,l),
(715,700,l),
(25,700,l),
(25,0,l)
);
}
);
width = 750;
},
{
layerId = "17BBE581-D9AE-4474-AE3B-3DD1F1A1E441";
shapes = (
{
closed = 1;
nodes = (
(725,0,l),
(725,680,l),
(35,680,l),
(35,700,l),
(25,700,l),
(25,0,l)
);
}
);
width = 750;
},
{
layerId = "44B3CF47-E9D7-4BB1-BF2E-5EBDFF91057D";
shapes = (
{
closed = 1;
nodes = (
(725,0,l),
(725,680,l),
(715,680,l),
(715,700,l),
(25,700,l),
(25,0,l)
);
}
);
width = 750;
},
{
layerId = "270F6D2A-3FB5-4830-B0FD-3E22F3EDE89C";
shapes = (
{
closed = 1;
nodes = (
(725,0,l),
(725,500,l),
(125,500,l),
(125,700,l),
(25,700,l),
(25,0,l)
);
}
);
width = 750;
},
{
layerId = "0A489E87-4003-4383-ABB5-6AA2A9FB3485";
shapes = (
{
closed = 1;
nodes = (
(725,0,l),
(725,500,l),
(625,500,l),
(625,700,l),
(25,700,l),
(25,0,l)
);
}
);
width = 750;
},
{
layerId = "1C34913A-ED8B-4606-9734-2876B967C373";
shapes = (
{
closed = 1;
nodes = (
(725,0,l),
(725,100,l),
(625,100,l),
(625,700,l),
(25,700,l),
(25,0,l)
);
}
);
width = 750;
}
);
unicode = (76,108);
},
{
glyphname = M;
lastChange = "2023-09-12 15:06:31 +0000";
layers = (
{
layerId = m01;
shapes = (
{
closed = 1;
nodes = (
(350,0,l),
(350,690,l),
(360,690,l),
(360,0,l),
(390,0,l),
(390,690,l),
(400,690,l),
(400,0,l),
(725,0,l),
(725,700,l),
(380,700,l),
(380,10,l),
(370,10,l),
(370,700,l),
(25,700,l),
(25,0,l)
);
}
);
width = 750;
},
{
layerId = "17BBE581-D9AE-4474-AE3B-3DD1F1A1E441";
shapes = (
{
closed = 1;
nodes = (
(35,0,l),
(35,10,l),
(370,10,l),
(370,0,l),
(380,0,l),
(380,10,l),
(715,10,l),
(715,0,l),
(725,0,l),
(725,700,l),
(715,700,l),
(715,690,l),
(35,690,l),
(35,700,l),
(25,700,l),
(25,0,l)
);
}
);
width = 750;
},
{
layerId = "44B3CF47-E9D7-4BB1-BF2E-5EBDFF91057D";
shapes = (
{
closed = 1;
nodes = (
(350,0,l),
(350,10,l),
(360,10,l),
(360,0,l),
(390,0,l),
(390,10,l),
(400,10,l),
(400,0,l),
(725,0,l),
(725,700,l),
(380,700,l),
(380,690,l),
(370,690,l),
(370,700,l),
(25,700,l),
(25,0,l)
);
}
);
width = 750;
},
{
layerId = "270F6D2A-3FB5-4830-B0FD-3E22F3EDE89C";
shapes = (
{
closed = 1;
nodes = (
(125,0,l),
(125,100,l),
(325,100,l),
(325,0,l),
(425,0,l),
(425,100,l),
(625,100,l),
(625,0,l),
(725,0,l),
(725,700,l),
(625,700,l),
(625,600,l),
(125,600,l),
(125,700,l),
(25,700,l),
(25,0,l)
);
}
);
width = 750;
},
{
layerId = "0A489E87-4003-4383-ABB5-6AA2A9FB3485";
shapes = (
{
closed = 1;
nodes = (
(125,0,l),
(125,100,l),
(225,100,l),
(225,0,l),
(525,0,l),
(525,100,l),
(625,100,l),
(625,0,l),
(725,0,l),
(725,700,l),
(425,700,l),
(425,600,l),
(325,600,l),
(325,700,l),
(25,700,l),
(25,0,l)
);
}
);
width = 750;
},
{
layerId = "1C34913A-ED8B-4606-9734-2876B967C373";
shapes = (
{
closed = 1;
nodes = (
(125,0,l),
(125,600,l),
(225,600,l),
(225,0,l),
(525,0,l),
(525,600,l),
(625,600,l),
(625,0,l),
(725,0,l),
(725,700,l),
(425,700,l),
(425,100,l),
(325,100,l),
(325,700,l),
(25,700,l),
(25,0,l)
);
}
);
width = 750;
}
);
unicode = (77,109);
},
{
glyphname = N;
lastChange = "2023-09-12 15:13:27 +0000";
layers = (
{
layerId = m01;
shapes = (
{
closed = 1;
nodes = (
(360,0,l),
(360,690,l),
(370,690,l),
(370,0,l),
(725,0,l),
(725,700,l),
(390,700,l),
(390,10,l),
(380,10,l),
(380,700,l),
(25,700,l),
(25,0,l)
);
}
);
width = 750;
},
{
layerId = "17BBE581-D9AE-4474-AE3B-3DD1F1A1E441";
shapes = (
{
closed = 1;
nodes = (
(35,0,l),
(35,10,l),
(370,10,l),
(370,0,l),
(725,0,l),
(725,700,l),
(715,700,l),
(715,690,l),
(380,690,l),
(380,700,l),
(25,700,l),
(25,0,l)
);
}
);
width = 750;
},
{
layerId = "44B3CF47-E9D7-4BB1-BF2E-5EBDFF91057D";
shapes = (
{
closed = 1;
nodes = (
(360,0,l),
(360,10,l),
(370,10,l),
(370,0,l),
(725,0,l),
(725,700,l),
(390,700,l),
(390,690,l),
(380,690,l),
(380,700,l),
(25,700,l),
(25,0,l)
);
}
);
width = 750;
},
{
layerId = "270F6D2A-3FB5-4830-B0FD-3E22F3EDE89C";
shapes = (
{
closed = 1;
nodes = (
(125,0,l),
(125,100,l),
(325,100,l),
(325,0,l),
(725,0,l),
(725,700,l),
(625,700,l),
(625,600,l),
(425,600,l),
(425,700,l),
(25,700,l),
(25,0,l)
);
}
);
width = 750;
},
{
layerId = "0A489E87-4003-4383-ABB5-6AA2A9FB3485";
shapes = (
{
closed = 1;
nodes = (
(225,0,l),
(225,100,l),
(325,100,l),
(325,0,l),
(725,0,l),
(725,700,l),
(525,700,l),
(525,600,l),
(425,600,l),
(425,700,l),
(25,700,l),
(25,0,l)
);
}
);
width = 750;
},
{
layerId = "1C34913A-ED8B-4606-9734-2876B967C373";
shapes = (
{
closed = 1;
nodes = (
(225,0,l),
(225,600,l),
(325,600,l),
(325,0,l),
(725,0,l),
(725,700,l),
(525,700,l),
(525,100,l),
(425,100,l),
(425,700,l),
(25,700,l),
(25,0,l)
);
}
);
width = 750;
}
);
unicode = (78,110);
},
{
glyphname = O;
lastChange = "2023-09-12 15:00:16 +0000";
layers = (
{
layerId = m01;
shapes = (
{
closed = 1;
nodes = (
(725,0,l),
(725,700,l),
(25,700,l),
(25,0,l)
);
},
{
closed = 1;
nodes = (
(370,690,l),
(380,690,l),
(380,10,l),
(370,10,l)
);
}
);
width = 750;
},
{
layerId = "17BBE581-D9AE-4474-AE3B-3DD1F1A1E441";
shapes = (
{
closed = 1;
nodes = (
(725,0,l),
(725,700,l),
(25,700,l),
(25,0,l)
);
},
{
closed = 1;
nodes = (
(35,355,l),
(715,355,l),
(715,345,l),
(35,345,l)
);
}
);
width = 750;
},
{
layerId = "44B3CF47-E9D7-4BB1-BF2E-5EBDFF91057D";
shapes = (
{
closed = 1;
nodes = (
(725,0,l),
(725,700,l),
(25,700,l),
(25,0,l)
);
},
{
closed = 1;
nodes = (
(370,355,l),
(380,355,l),
(380,345,l),
(370,345,l)
);
}
);
width = 750;
},
{
layerId = "270F6D2A-3FB5-4830-B0FD-3E22F3EDE89C";
shapes = (
{
closed = 1;
nodes = (
(725,0,l),
(725,700,l),
(25,700,l),
(25,0,l)
);
},
{
closed = 1;
nodes = (
(125,400,l),
(625,400,l),
(625,300,l),
(125,300,l)
);
}
);
width = 750;
},
{
layerId = "0A489E87-4003-4383-ABB5-6AA2A9FB3485";
shapes = (
{
closed = 1;
nodes = (
(725,0,l),
(725,700,l),
(25,700,l),
(25,0,l)
);
},
{
closed = 1;
nodes = (
(325,400,l),
(425,400,l),
(425,300,l),
(325,300,l)
);
}
);
width = 750;
},
{
layerId = "1C34913A-ED8B-4606-9734-2876B967C373";
shapes = (
{
closed = 1;
nodes = (
(725,0,l),
(725,700,l),
(25,700,l),
(25,0,l)
);
},
{
closed = 1;
nodes = (
(325,600,l),
(425,600,l),
(425,100,l),
(325,100,l)
);
}
);
width = 750;
}
);
unicode = (79,111);
},
{
glyphname = P;
lastChange = "2023-09-12 15:07:52 +0000";
layers = (
{
layerId = m01;
shapes = (
{
closed = 1;
nodes = (
(715,0,l),
(715,690,l),
(725,690,l),
(725,700,l),
(25,700,l),
(25,0,l)
);
},
{
closed = 1;
nodes = (
(370,690,l),
(380,690,l),
(380,10,l),
(370,10,l)
);
}
);
width = 750;
},
{
layerId = "17BBE581-D9AE-4474-AE3B-3DD1F1A1E441";
shapes = (
{
closed = 1;
nodes = (
(35,0,l),
(35,20,l),
(725,20,l),
(725,700,l),
(25,700,l),
(25,0,l)
);
},
{
closed = 1;
nodes = (
(35,355,l),
(715,355,l),
(715,345,l),
(35,345,l)
);
}
);
width = 750;
},
{
layerId = "44B3CF47-E9D7-4BB1-BF2E-5EBDFF91057D";
shapes = (
{
closed = 1;
nodes = (
(715,0,l),
(715,20,l),
(725,20,l),
(725,700,l),
(25,700,l),
(25,0,l)
);
},
{
closed = 1;
nodes = (
(370,355,l),
(380,355,l),
(380,345,l),
(370,345,l)
);
}
);
width = 750;
},
{
layerId = "270F6D2A-3FB5-4830-B0FD-3E22F3EDE89C";
shapes = (
{
closed = 1;
nodes = (
(125,0,l),
(125,200,l),
(725,200,l),
(725,700,l),
(25,700,l),
(25,0,l)
);
},
{
closed = 1;
nodes = (
(125,400,l),
(625,400,l),
(625,300,l),
(125,300,l)
);
}
);
width = 750;
},
{
layerId = "0A489E87-4003-4383-ABB5-6AA2A9FB3485";
shapes = (
{
closed = 1;
nodes = (
(625,0,l),
(625,200,l),
(725,200,l),
(725,700,l),
(25,700,l),
(25,0,l)
);
},
{
closed = 1;
nodes = (
(325,400,l),
(425,400,l),
(425,300,l),
(325,300,l)
);
}
);
width = 750;
},
{
layerId = "1C34913A-ED8B-4606-9734-2876B967C373";
shapes = (
{
closed = 1;
nodes = (
(625,0,l),
(625,600,l),
(725,600,l),
(725,700,l),
(25,700,l),
(25,0,l)
);
},
{
closed = 1;
nodes = (
(325,600,l),
(425,600,l),
(425,100,l),
(325,100,l)
);
}
);
width = 750;
}
);
unicode = (80,112);
},
{
glyphname = Q;
lastChange = "2023-09-13 00:47:46 +0000";
layers = (
{
layerId = m01;
shapes = (
{
closed = 1;
nodes = (
(380,0,l),
(380,690,l),
(390,690,l),
(390,0,l),
(725,0,l),
(725,700,l),
(25,700,l),
(25,0,l)
);
},
{
closed = 1;
nodes = (
(360,690,l),
(370,690,l),
(370,10,l),
(360,10,l)
);
}
);
width = 750;
},
{
layerId = "17BBE581-D9AE-4474-AE3B-3DD1F1A1E441";
shapes = (
{
closed = 1;
nodes = (
(380,0,l),
(380,10,l),
(715,10,l),
(715,0,l),
(725,0,l),
(725,700,l),
(25,700,l),
(25,0,l)
);
},
{
closed = 1;
nodes = (
(35,355,l),
(370,355,l),
(370,345,l),
(35,345,l)
);
}
);
width = 750;
},
{
layerId = "44B3CF47-E9D7-4BB1-BF2E-5EBDFF91057D";
shapes = (
{
closed = 1;
nodes = (
(380,0,l),
(380,10,l),
(390,10,l),
(390,0,l),
(725,0,l),
(725,700,l),
(25,700,l),
(25,0,l)
);
},
{
closed = 1;
nodes = (
(360,355,l),
(370,355,l),
(370,345,l),
(360,345,l)
);
}
);
width = 750;
},
{
layerId = "270F6D2A-3FB5-4830-B0FD-3E22F3EDE89C";
shapes = (
{
closed = 1;
nodes = (
(425,0,l),
(425,100,l),
(625,100,l),
(625,0,l),
(725,0,l),
(725,700,l),
(25,700,l),
(25,0,l)
);
},
{
closed = 1;
nodes = (
(125,400,l),
(325,400,l),
(325,300,l),
(125,300,l)
);
}
);
width = 750;
},
{
layerId = "0A489E87-4003-4383-ABB5-6AA2A9FB3485";
shapes = (
{
closed = 1;
nodes = (
(425,0,l),
(425,100,l),
(525,100,l),
(525,0,l),
(725,0,l),
(725,700,l),
(25,700,l),
(25,0,l)
);
},
{
closed = 1;
nodes = (
(225,400,l),
(325,400,l),
(325,300,l),
(225,300,l)
);
}
);
width = 750;
},
{
layerId = "1C34913A-ED8B-4606-9734-2876B967C373";
shapes = (
{
closed = 1;
nodes = (
(425,0,l),
(425,600,l),
(525,600,l),
(525,0,l),
(725,0,l),
(725,700,l),
(25,700,l),
(25,0,l)
);
},
{
closed = 1;
nodes = (
(225,600,l),
(325,600,l),
(325,100,l),
(225,100,l)
);
}
);
width = 750;
}
);
unicode = (81,113);
},
{
glyphname = R;
lastChange = "2023-09-13 00:59:13 +0000";
layers = (
{
layerId = m01;
shapes = (
{
closed = 1;
nodes = (
(370,0,l),
(370,355,l),
(380,355,l),
(380,0,l),
(725,0,l),
(725,10,l),
(715,10,l),
(715,690,l),
(725,690,l),
(725,700,l),
(25,700,l),
(25,0,l)
);
},
{
closed = 1;
nodes = (
(370,695,l),
(380,695,l),
(380,365,l),
(370,365,l)
);
}
);
width = 750;
},
{
layerId = "17BBE581-D9AE-4474-AE3B-3DD1F1A1E441";
shapes = (
{
closed = 1;
nodes = (
(35,0,l),
(35,10,l),
(715,10,l),
(715,0,l),
(725,0,l),
(725,345,l),
(35,345,l),
(35,355,l),
(725,355,l),
(725,700,l),
(25,700,l),
(25,0,l)
);
},
{
closed = 1;
nodes = (
(35,375,l),
(715,375,l),
(715,365,l),
(35,365,l)
);
}
);
width = 750;
},
{
layerId = "44B3CF47-E9D7-4BB1-BF2E-5EBDFF91057D";
shapes = (
{
closed = 1;
nodes = (
(370,0,l),
(370,10,l),
(380,10,l),
(380,0,l),
(725,0,l),
(725,345,l),
(715,345,l),
(715,355,l),
(725,355,l),
(725,700,l),
(25,700,l),
(25,0,l)
);
},
{
closed = 1;
nodes = (
(370,375,l),
(380,375,l),
(380,365,l),
(370,365,l)
);
}
);
width = 750;
},
{
layerId = "270F6D2A-3FB5-4830-B0FD-3E22F3EDE89C";
shapes = (
{
closed = 1;
nodes = (
(125,0,l),
(125,100,l),
(625,100,l),
(625,0,l),
(725,0,l),
(725,300,l),
(125,300,l),
(125,400,l),
(725,400,l),
(725,700,l),
(25,700,l),
(25,0,l)
);
},
{
closed = 1;
nodes = (
(125,600,l),
(625,600,l),
(625,500,l),
(125,500,l)
);
}
);
width = 750;
},
{
layerId = "0A489E87-4003-4383-ABB5-6AA2A9FB3485";
shapes = (
{
closed = 1;
nodes = (
(325,0,l),
(325,100,l),
(425,100,l),
(425,0,l),
(725,0,l),
(725,300,l),
(625,300,l),
(625,400,l),
(725,400,l),
(725,700,l),
(25,700,l),
(25,0,l)
);
},
{
closed = 1;
nodes = (
(325,600,l),
(425,600,l),
(425,500,l),
(325,500,l)
);
}
);
width = 750;
},
{
layerId = "1C34913A-ED8B-4606-9734-2876B967C373";
shapes = (
{
closed = 1;
nodes = (
(325,0,l),
(325,250,l),
(425,250,l),
(425,0,l),
(725,0,l),
(725,100,l),
(625,100,l),
(625,600,l),
(725,600,l),
(725,700,l),
(25,700,l),
(25,0,l)
);
},
{
closed = 1;
nodes = (
(325,600,l),
(425,600,l),
(425,350,l),
(325,350,l)
);
}
);
width = 750;
}
);
unicode = (82,114);
},
{
glyphname = S;
lastChange = "2023-09-12 15:02:43 +0000";
layers = (
{
layerId = m01;
shapes = (
{
closed = 1;
nodes = (
(725,0,l),
(725,355,l),
(715,355,l),
(715,690,l),
(725,690,l),
(725,700,l),
(25,700,l),
(25,345,l),
(35,345,l),
(35,10,l),
(25,10,l),
(25,0,l)
);
}
);
width = 750;
},
{
layerId = "17BBE581-D9AE-4474-AE3B-3DD1F1A1E441";
shapes = (
{
closed = 1;
nodes = (
(725,0,l),
(725,355,l),
(35,355,l),
(35,365,l),
(725,365,l),
(725,700,l),
(25,700,l),
(25,345,l),
(715,345,l),
(715,335,l),
(25,335,l),
(25,0,l)
);
}
);
width = 750;
},
{
layerId = "44B3CF47-E9D7-4BB1-BF2E-5EBDFF91057D";
shapes = (
{
closed = 1;
nodes = (
(725,0,l),
(725,355,l),
(715,355,l),
(715,365,l),
(725,365,l),
(725,700,l),
(25,700,l),
(25,345,l),
(35,345,l),
(35,335,l),
(25,335,l),
(25,0,l)
);
}
);
width = 750;
},
{
layerId = "270F6D2A-3FB5-4830-B0FD-3E22F3EDE89C";
shapes = (
{
closed = 1;
nodes = (
(725,0,l),
(725,400,l),
(125,400,l),
(125,500,l),
(725,500,l),
(725,700,l),
(25,700,l),
(25,300,l),
(625,300,l),
(625,200,l),
(25,200,l),
(25,0,l)
);
}
);
width = 750;
},
{
layerId = "0A489E87-4003-4383-ABB5-6AA2A9FB3485";
shapes = (
{
closed = 1;
nodes = (
(725,0,l),
(725,400,l),
(625,400,l),
(625,500,l),
(725,500,l),
(725,700,l),
(25,700,l),
(25,300,l),
(125,300,l),
(125,200,l),
(25,200,l),
(25,0,l)
);
}
);
width = 750;
},
{
layerId = "1C34913A-ED8B-4606-9734-2876B967C373";
shapes = (
{
closed = 1;
nodes = (
(725,0,l),
(725,400,l),
(625,400,l),
(625,600,l),
(725,600,l),
(725,700,l),
(25,700,l),
(25,300,l),
(125,300,l),
(125,100,l),
(25,100,l),
(25,0,l)
);
}
);
width = 750;
}
);
unicode = (83,115);
},
{
glyphname = T;
lastChange = "2023-09-12 21:19:56 +0000";
layers = (
{
layerId = m01;
shapes = (
{
closed = 1;
nodes = (
(25,690,l),
(35,690,l),
(35,0,l),
(715,0,l),
(715,690,l),
(725,690,l),
(725,700,l),
(25,700,l)
);
}
);
width = 750;
},
{
layerId = "17BBE581-D9AE-4474-AE3B-3DD1F1A1E441";
shapes = (
{
closed = 1;
nodes = (
(25,20,l),
(370,20,l),
(370,0,l),
(380,0,l),
(380,20,l),
(725,20,l),
(725,700,l),
(25,700,l)
);
}
);
width = 750;
},
{
layerId = "44B3CF47-E9D7-4BB1-BF2E-5EBDFF91057D";
shapes = (
{
closed = 1;
nodes = (
(25,20,l),
(35,20,l),
(35,0,l),
(715,0,l),
(715,20,l),
(725,20,l),
(725,700,l),
(25,700,l)
);
}
);
width = 750;
},
{
layerId = "270F6D2A-3FB5-4830-B0FD-3E22F3EDE89C";
shapes = (
{
closed = 1;
nodes = (
(25,200,l),
(325,200,l),
(325,0,l),
(425,0,l),
(425,200,l),
(725,200,l),
(725,700,l),
(25,700,l)
);
}
);
width = 750;
},
{
layerId = "0A489E87-4003-4383-ABB5-6AA2A9FB3485";
shapes = (
{
closed = 1;
nodes = (
(25,200,l),
(125,200,l),
(125,0,l),
(625,0,l),
(625,200,l),
(725,200,l),
(725,700,l),
(25,700,l)
);
}
);
width = 750;
},
{
layerId = "1C34913A-ED8B-4606-9734-2876B967C373";
shapes = (
{
closed = 1;
nodes = (
(25,600,l),
(125,600,l),
(125,0,l),
(625,0,l),
(625,600,l),
(725,600,l),
(725,700,l),
(25,700,l)
);
}
);
width = 750;
}
);
unicode = (84,116);
},
{
glyphname = U;
lastChange = "2023-09-12 15:08:57 +0000";
layers = (
{
layerId = m01;
shapes = (
{
closed = 1;
nodes = (
(25,0,l),
(725,0,l),
(725,700,l),
(380,700,l),
(380,10,l),
(370,10,l),
(370,700,l),
(25,700,l)
);
}
);
width = 750;
},
{
layerId = "17BBE581-D9AE-4474-AE3B-3DD1F1A1E441";
shapes = (
{
closed = 1;
nodes = (
(25,0,l),
(725,0,l),
(725,700,l),
(715,700,l),
(715,690,l),
(35,690,l),
(35,700,l),
(25,700,l)
);
}
);
width = 750;
},
{
layerId = "44B3CF47-E9D7-4BB1-BF2E-5EBDFF91057D";
shapes = (
{
closed = 1;
nodes = (
(25,0,l),
(725,0,l),
(725,700,l),
(380,700,l),
(380,690,l),
(370,690,l),
(370,700,l),
(25,700,l)
);
}
);
width = 750;
},
{
layerId = "270F6D2A-3FB5-4830-B0FD-3E22F3EDE89C";
shapes = (
{
closed = 1;
nodes = (
(25,0,l),
(725,0,l),
(725,700,l),
(625,700,l),
(625,600,l),
(125,600,l),
(125,700,l),
(25,700,l)
);
}
);
width = 750;
},
{
layerId = "0A489E87-4003-4383-ABB5-6AA2A9FB3485";
shapes = (
{
closed = 1;
nodes = (
(25,0,l),
(725,0,l),
(725,700,l),
(425,700,l),
(425,600,l),
(325,600,l),
(325,700,l),
(25,700,l)
);
}
);
width = 750;
},
{
layerId = "1C34913A-ED8B-4606-9734-2876B967C373";
shapes = (
{
closed = 1;
nodes = (
(25,0,l),
(725,0,l),
(725,700,l),
(425,700,l),
(425,100,l),
(325,100,l),
(325,700,l),
(25,700,l)
);
}
);
width = 750;
}
);
unicode = (85,117);
},
{
glyphname = V;
lastChange = "2023-09-13 00:56:55 +0000";
layers = (
{
layerId = m01;
shapes = (
{
closed = 1;
nodes = (
(25,350,l),
(35,350,l),
(35,0,l),
(715,0,l),
(715,350,l),
(725,350,l),
(725,700,l),
(380,700,l),
(380,10,l),
(370,10,l),
(370,700,l),
(25,700,l)
);
}
);
width = 750;
},
{
layerId = "17BBE581-D9AE-4474-AE3B-3DD1F1A1E441";
shapes = (
{
closed = 1;
nodes = (
(25,10,l),
(370,10,l),
(370,0,l),
(380,0,l),
(380,10,l),
(725,10,l),
(725,700,l),
(715,700,l),
(715,690,l),
(35,690,l),
(35,700,l),
(25,700,l)
);
}
);
width = 750;
},
{
layerId = "44B3CF47-E9D7-4BB1-BF2E-5EBDFF91057D";
shapes = (
{
closed = 1;
nodes = (
(25,10,l),
(35,10,l),
(35,0,l),
(715,0,l),
(715,10,l),
(725,10,l),
(725,700,l),
(380,700,l),
(380,690,l),
(370,690,l),
(370,700,l),
(25,700,l)
);
}
);
width = 750;
},
{
layerId = "270F6D2A-3FB5-4830-B0FD-3E22F3EDE89C";
shapes = (
{
closed = 1;
nodes = (
(25,100,l),
(325,100,l),
(325,0,l),
(425,0,l),
(425,100,l),
(725,100,l),
(725,700,l),
(625,700,l),
(625,600,l),
(125,600,l),
(125,700,l),
(25,700,l)
);
}
);
width = 750;
},
{
layerId = "0A489E87-4003-4383-ABB5-6AA2A9FB3485";
shapes = (
{
closed = 1;
nodes = (
(25,100,l),
(125,100,l),
(125,0,l),
(625,0,l),
(625,100,l),
(725,100,l),
(725,700,l),
(425,700,l),
(425,600,l),
(325,600,l),
(325,700,l),
(25,700,l)
);
}
);
width = 750;
},
{
layerId = "1C34913A-ED8B-4606-9734-2876B967C373";
shapes = (
{
closed = 1;
nodes = (
(25,350,l),
(125,350,l),
(125,0,l),
(625,0,l),
(625,350,l),
(725,350,l),
(725,700,l),
(425,700,l),
(425,100,l),
(325,100,l),
(325,700,l),
(25,700,l)
);
}
);
width = 750;
}
);
unicode = (86,118);
},
{
glyphname = W;
lastChange = "2023-09-12 15:08:33 +0000";
layers = (
{
layerId = m01;
shapes = (
{
closed = 1;
nodes = (
(25,0,l),
(370,0,l),
(370,690,l),
(380,690,l),
(380,0,l),
(725,0,l),
(725,700,l),
(400,700,l),
(400,10,l),
(390,10,l),
(390,700,l),
(360,700,l),
(360,10,l),
(350,10,l),
(350,700,l),
(25,700,l)
);
}
);
width = 750;
},
{
layerId = "17BBE581-D9AE-4474-AE3B-3DD1F1A1E441";
shapes = (
{
closed = 1;
nodes = (
(25,0,l),
(35,0,l),
(35,10,l),
(715,10,l),
(715,0,l),
(725,0,l),
(725,700,l),
(715,700,l),
(715,690,l),
(380,690,l),
(380,700,l),
(370,700,l),
(370,690,l),
(35,690,l),
(35,700,l),
(25,700,l)
);
}
);
width = 750;
},
{
layerId = "44B3CF47-E9D7-4BB1-BF2E-5EBDFF91057D";
shapes = (
{
closed = 1;
nodes = (
(25,0,l),
(370,0,l),
(370,10,l),
(380,10,l),
(380,0,l),
(725,0,l),
(725,700,l),
(400,700,l),
(400,690,l),
(390,690,l),
(390,700,l),
(360,700,l),
(360,690,l),
(350,690,l),
(350,700,l),
(25,700,l)
);
}
);
width = 750;
},
{
layerId = "270F6D2A-3FB5-4830-B0FD-3E22F3EDE89C";
shapes = (
{
closed = 1;
nodes = (
(25,0,l),
(125,0,l),
(125,100,l),
(625,100,l),
(625,0,l),
(725,0,l),
(725,700,l),
(625,700,l),
(625,600,l),
(425,600,l),
(425,700,l),
(325,700,l),
(325,600,l),
(125,600,l),
(125,700,l),
(25,700,l)
);
}
);
width = 750;
},
{
layerId = "0A489E87-4003-4383-ABB5-6AA2A9FB3485";
shapes = (
{
closed = 1;
nodes = (
(25,0,l),
(325,0,l),
(325,100,l),
(425,100,l),
(425,0,l),
(725,0,l),
(725,700,l),
(625,700,l),
(625,600,l),
(525,600,l),
(525,700,l),
(225,700,l),
(225,600,l),
(125,600,l),
(125,700,l),
(25,700,l)
);
}
);
width = 750;
},
{
layerId = "1C34913A-ED8B-4606-9734-2876B967C373";
shapes = (
{
closed = 1;
nodes = (
(25,0,l),
(325,0,l),
(325,600,l),
(425,600,l),
(425,0,l),
(725,0,l),
(725,700,l),
(625,700,l),
(625,100,l),
(525,100,l),
(525,700,l),
(225,700,l),
(225,100,l),
(125,100,l),
(125,700,l),
(25,700,l)
);
}
);
width = 750;
}
);
unicode = (87,119);
},
{
glyphname = X;
lastChange = "2023-09-12 15:11:52 +0000";
layers = (
{
layerId = m01;
shapes = (
{
closed = 1;
nodes = (
(25,690,l),
(35,690,l),
(35,10,l),
(25,10,l),
(25,0,l),
(370,0,l),
(370,345,l),
(380,345,l),
(380,0,l),
(725,0,l),
(725,10,l),
(715,10,l),
(715,690,l),
(725,690,l),
(725,700,l),
(380,700,l),
(380,355,l),
(370,355,l),
(370,700,l),
(25,700,l)
);
}
);
width = 750;
},
{
layerId = "17BBE581-D9AE-4474-AE3B-3DD1F1A1E441";
shapes = (
{
closed = 1;
nodes = (
(25,355,l),
(370,355,l),
(370,345,l),
(25,345,l),
(25,0,l),
(35,0,l),
(35,10,l),
(715,10,l),
(715,0,l),
(725,0,l),
(725,345,l),
(380,345,l),
(380,355,l),
(725,355,l),
(725,700,l),
(715,700,l),
(715,690,l),
(35,690,l),
(35,700,l),
(25,700,l)
);
}
);
width = 750;
},
{
layerId = "44B3CF47-E9D7-4BB1-BF2E-5EBDFF91057D";
shapes = (
{
closed = 1;
nodes = (
(25,355,l),
(35,355,l),
(35,345,l),
(25,345,l),
(25,0,l),
(370,0,l),
(370,10,l),
(380,10,l),
(380,0,l),
(725,0,l),
(725,345,l),
(715,345,l),
(715,355,l),
(725,355,l),
(725,700,l),
(380,700,l),
(380,690,l),
(370,690,l),
(370,700,l),
(25,700,l)
);
}
);
width = 750;
},
{
layerId = "270F6D2A-3FB5-4830-B0FD-3E22F3EDE89C";
shapes = (
{
closed = 1;
nodes = (
(25,400,l),
(325,400,l),
(325,300,l),
(25,300,l),
(25,0,l),
(125,0,l),
(125,100,l),
(625,100,l),
(625,0,l),
(725,0,l),
(725,300,l),
(425,300,l),
(425,400,l),
(725,400,l),
(725,700,l),
(625,700,l),
(625,600,l),
(125,600,l),
(125,700,l),
(25,700,l)
);
}
);
width = 750;
},
{
layerId = "0A489E87-4003-4383-ABB5-6AA2A9FB3485";
shapes = (
{
closed = 1;
nodes = (
(25,400,l),
(125,400,l),
(125,300,l),
(25,300,l),
(25,0,l),
(325,0,l),
(325,100,l),
(425,100,l),
(425,0,l),
(725,0,l),
(725,300,l),
(625,300,l),
(625,400,l),
(725,400,l),
(725,700,l),
(425,700,l),
(425,600,l),
(325,600,l),
(325,700,l),
(25,700,l)
);
}
);
width = 750;
},
{
layerId = "1C34913A-ED8B-4606-9734-2876B967C373";
shapes = (
{
closed = 1;
nodes = (
(25,600,l),
(125,600,l),
(125,100,l),
(25,100,l),
(25,0,l),
(325,0,l),
(325,299,l),
(425,299,l),
(425,0,l),
(725,0,l),
(725,100,l),
(625,100,l),
(625,600,l),
(725,600,l),
(725,700,l),
(425,700,l),
(425,400,l),
(325,400,l),
(325,700,l),
(25,700,l)
);
}
);
width = 750;
}
);
unicode = (88,120);
},
{
glyphname = Y;
lastChange = "2023-09-13 00:55:45 +0000";
layers = (
{
layerId = m01;
shapes = (
{
closed = 1;
nodes = (
(25,690,l),
(35,690,l),
(35,0,l),
(715,0,l),
(715,690,l),
(725,690,l),
(725,700,l),
(380,700,l),
(380,10,l),
(370,10,l),
(370,700,l),
(25,700,l)
);
}
);
width = 750;
},
{
layerId = "17BBE581-D9AE-4474-AE3B-3DD1F1A1E441";
shapes = (
{
closed = 1;
nodes = (
(25,20,l),
(365,20,l),
(365,0,l),
(375,0,l),
(375,20,l),
(725,20,l),
(725,700,l),
(715,700,l),
(715,690,l),
(35,690,l),
(35,700,l),
(25,700,l)
);
}
);
width = 750;
},
{
layerId = "44B3CF47-E9D7-4BB1-BF2E-5EBDFF91057D";
shapes = (
{
closed = 1;
nodes = (
(25,20,l),
(35,20,l),
(35,0,l),
(715,0,l),
(715,20,l),
(725,20,l),
(725,700,l),
(380,700,l),
(380,690,l),
(370,690,l),
(370,700,l),
(25,700,l)
);
}
);
width = 750;
},
{
layerId = "270F6D2A-3FB5-4830-B0FD-3E22F3EDE89C";
shapes = (
{
closed = 1;
nodes = (
(25,100,l),
(325,100,l),
(325,0,l),
(425,0,l),
(425,100,l),
(725,100,l),
(725,700,l),
(625,700,l),
(625,600,l),
(125,600,l),
(125,700,l),
(25,700,l)
);
}
);
width = 750;
},
{
layerId = "0A489E87-4003-4383-ABB5-6AA2A9FB3485";
shapes = (
{
closed = 1;
nodes = (
(25,200,l),
(125,200,l),
(125,0,l),
(625,0,l),
(625,200,l),
(725,200,l),
(725,700,l),
(425,700,l),
(425,600,l),
(325,600,l),
(325,700,l),
(25,700,l)
);
}
);
width = 750;
},
{
layerId = "1C34913A-ED8B-4606-9734-2876B967C373";
shapes = (
{
closed = 1;
nodes = (
(25,600,l),
(125,600,l),
(125,0,l),
(625,0,l),
(625,600,l),
(725,600,l),
(725,700,l),
(425,700,l),
(425,100,l),
(325,100,l),
(325,700,l),
(25,700,l)
);
}
);
width = 750;
}
);
unicode = (89,121);
},
{
glyphname = Z;
lastChange = "2023-09-12 21:19:07 +0000";
layers = (
{
layerId = m01;
shapes = (
{
closed = 1;
nodes = (
(725,10,l),
(715,10,l),
(715,345,l),
(725,345,l),
(725,700,l),
(25,700,l),
(25,690,l),
(35,690,l),
(35,355,l),
(25,355,l),
(25,0,l),
(725,0,l)
);
}
);
width = 750;
},
{
layerId = "17BBE581-D9AE-4474-AE3B-3DD1F1A1E441";
shapes = (
{
closed = 1;
nodes = (
(725,335,l),
(35,335,l),
(35,345,l),
(725,345,l),
(725,700,l),
(25,700,l),
(25,365,l),
(715,365,l),
(715,355,l),
(25,355,l),
(25,0,l),
(725,0,l)
);
}
);
width = 750;
},
{
layerId = "44B3CF47-E9D7-4BB1-BF2E-5EBDFF91057D";
shapes = (
{
closed = 1;
nodes = (
(725,335,l),
(715,335,l),
(715,345,l),
(725,345,l),
(725,700,l),
(25,700,l),
(25,365,l),
(35,365,l),
(35,355,l),
(25,355,l),
(25,0,l),
(725,0,l)
);
}
);
width = 750;
},
{
layerId = "270F6D2A-3FB5-4830-B0FD-3E22F3EDE89C";
shapes = (
{
closed = 1;
nodes = (
(725,200,l),
(125,200,l),
(125,300,l),
(725,300,l),
(725,700,l),
(25,700,l),
(25,500,l),
(625,500,l),
(625,400,l),
(25,400,l),
(25,0,l),
(725,0,l)
);
}
);
width = 750;
},
{
layerId = "0A489E87-4003-4383-ABB5-6AA2A9FB3485";
shapes = (
{
closed = 1;
nodes = (
(725,200,l),
(625,200,l),
(625,300,l),
(725,300,l),
(725,700,l),
(25,700,l),
(25,500,l),
(125,500,l),
(125,400,l),
(25,400,l),
(25,0,l),
(725,0,l)
);
}
);
width = 750;
},
{
layerId = "1C34913A-ED8B-4606-9734-2876B967C373";
shapes = (
{
closed = 1;
nodes = (
(725,100,l),
(625,100,l),
(625,300,l),
(725,300,l),
(725,700,l),
(25,700,l),
(25,600,l),
(125,600,l),
(125,400,l),
(25,400,l),
(25,0,l),
(725,0,l)
);
}
);
width = 750;
}
);
unicode = (90,122);
},
{
glyphname = zero;
lastChange = "2023-09-12 16:28:37 +0000";
layers = (
{
layerId = m01;
shapes = (
{
closed = 1;
nodes = (
(725,0,l),
(725,700,l),
(25,700,l),
(25,0,l)
);
},
{
closed = 1;
nodes = (
(370,690,l),
(380,690,l),
(380,10,l),
(370,10,l)
);
}
);
width = 750;
},
{
layerId = "17BBE581-D9AE-4474-AE3B-3DD1F1A1E441";
shapes = (
{
closed = 1;
nodes = (
(725,0,l),
(725,700,l),
(25,700,l),
(25,0,l)
);
},
{
closed = 1;
nodes = (
(35,355,l),
(715,355,l),
(715,345,l),
(35,345,l)
);
}
);
width = 750;
},
{
layerId = "44B3CF47-E9D7-4BB1-BF2E-5EBDFF91057D";
shapes = (
{
closed = 1;
nodes = (
(725,0,l),
(725,700,l),
(25,700,l),
(25,0,l)
);
},
{
closed = 1;
nodes = (
(370,355,l),
(380,355,l),
(380,345,l),
(370,345,l)
);
}
);
width = 750;
},
{
layerId = "270F6D2A-3FB5-4830-B0FD-3E22F3EDE89C";
shapes = (
{
closed = 1;
nodes = (
(725,0,l),
(725,700,l),
(25,700,l),
(25,0,l)
);
},
{
closed = 1;
nodes = (
(125,400,l),
(625,400,l),
(625,300,l),
(125,300,l)
);
}
);
width = 750;
},
{
layerId = "0A489E87-4003-4383-ABB5-6AA2A9FB3485";
shapes = (
{
closed = 1;
nodes = (
(725,0,l),
(725,700,l),
(25,700,l),
(25,0,l)
);
},
{
closed = 1;
nodes = (
(325,400,l),
(425,400,l),
(425,300,l),
(325,300,l)
);
}
);
width = 750;
},
{
layerId = "1C34913A-ED8B-4606-9734-2876B967C373";
shapes = (
{
closed = 1;
nodes = (
(725,0,l),
(725,700,l),
(25,700,l),
(25,0,l)
);
},
{
closed = 1;
nodes = (
(325,600,l),
(425,600,l),
(425,100,l),
(325,100,l)
);
}
);
width = 750;
}
);
unicode = 48;
},
{
glyphname = one;
lastChange = "2023-09-12 16:29:20 +0000";
layers = (
{
layerId = m01;
shapes = (
{
closed = 1;
nodes = (
(725,0,l),
(725,700,l),
(25,700,l),
(25,690,l),
(35,690,l),
(35,0,l)
);
}
);
width = 750;
},
{
layerId = "17BBE581-D9AE-4474-AE3B-3DD1F1A1E441";
shapes = (
{
closed = 1;
nodes = (
(725,0,l),
(725,700,l),
(25,700,l),
(25,20,l),
(715,20,l),
(715,0,l)
);
}
);
width = 750;
},
{
layerId = "44B3CF47-E9D7-4BB1-BF2E-5EBDFF91057D";
shapes = (
{
closed = 1;
nodes = (
(725,0,l),
(725,700,l),
(25,700,l),
(25,20,l),
(35,20,l),
(35,0,l)
);
}
);
width = 750;
},
{
layerId = "270F6D2A-3FB5-4830-B0FD-3E22F3EDE89C";
shapes = (
{
closed = 1;
nodes = (
(725,0,l),
(725,700,l),
(25,700,l),
(25,200,l),
(625,200,l),
(625,0,l)
);
}
);
width = 750;
},
{
layerId = "0A489E87-4003-4383-ABB5-6AA2A9FB3485";
shapes = (
{
closed = 1;
nodes = (
(725,0,l),
(725,700,l),
(25,700,l),
(25,200,l),
(125,200,l),
(125,0,l)
);
}
);
width = 750;
},
{
layerId = "1C34913A-ED8B-4606-9734-2876B967C373";
shapes = (
{
closed = 1;
nodes = (
(725,0,l),
(725,700,l),
(25,700,l),
(25,600,l),
(125,600,l),
(125,0,l)
);
}
);
width = 750;
}
);
unicode = 49;
},
{
glyphname = two;
lastChange = "2023-09-13 00:58:48 +0000";
layers = (
{
layerId = m01;
shapes = (
{
closed = 1;
nodes = (
(725,10,l),
(715,10,l),
(715,345,l),
(725,345,l),
(725,700,l),
(25,700,l),
(25,690,l),
(35,690,l),
(35,355,l),
(25,355,l),
(25,0,l),
(725,0,l)
);
}
);
width = 750;
},
{
layerId = "17BBE581-D9AE-4474-AE3B-3DD1F1A1E441";
shapes = (
{
closed = 1;
nodes = (
(725,335,l),
(35,335,l),
(35,345,l),
(725,345,l),
(725,700,l),
(25,700,l),
(25,365,l),
(715,365,l),
(715,355,l),
(25,355,l),
(25,0,l),
(725,0,l)
);
}
);
width = 750;
},
{
layerId = "44B3CF47-E9D7-4BB1-BF2E-5EBDFF91057D";
shapes = (
{
closed = 1;
nodes = (
(725,335,l),
(715,335,l),
(715,345,l),
(725,345,l),
(725,700,l),
(25,700,l),
(25,365,l),
(35,365,l),
(35,355,l),
(25,355,l),
(25,0,l),
(725,0,l)
);
}
);
width = 750;
},
{
layerId = "270F6D2A-3FB5-4830-B0FD-3E22F3EDE89C";
shapes = (
{
closed = 1;
nodes = (
(725,200,l),
(125,200,l),
(125,300,l),
(725,300,l),
(725,700,l),
(25,700,l),
(25,500,l),
(625,500,l),
(625,400,l),
(25,400,l),
(25,0,l),
(725,0,l)
);
}
);
width = 750;
},
{
layerId = "0A489E87-4003-4383-ABB5-6AA2A9FB3485";
shapes = (
{
closed = 1;
nodes = (
(725,200,l),
(625,200,l),
(625,300,l),
(725,300,l),
(725,700,l),
(25,700,l),
(25,500,l),
(125,500,l),
(125,400,l),
(25,400,l),
(25,0,l),
(725,0,l)
);
}
);
width = 750;
},
{
layerId = "1C34913A-ED8B-4606-9734-2876B967C373";
shapes = (
{
closed = 1;
nodes = (
(725,100,l),
(625,100,l),
(625,300,l),
(725,300,l),
(725,700,l),
(25,700,l),
(25,600,l),
(125,600,l),
(125,400,l),
(25,400,l),
(25,0,l),
(725,0,l)
);
}
);
width = 750;
}
);
unicode = 50;
},
{
glyphname = three;
lastChange = "2023-09-13 00:28:37 +0000";
layers = (
{
layerId = m01;
shapes = (
{
closed = 1;
nodes = (
(725,700,l),
(25,700,l),
(25,690,l),
(35,690,l),
(35,355,l),
(25,355,l),
(25,345,l),
(35,345,l),
(35,10,l),
(25,10,l),
(25,0,l),
(725,0,l)
);
}
);
width = 750;
},
{
layerId = "17BBE581-D9AE-4474-AE3B-3DD1F1A1E441";
shapes = (
{
closed = 1;
nodes = (
(725,700,l),
(25,700,l),
(25,365,l),
(715,365,l),
(715,355,l),
(25,355,l),
(25,345,l),
(715,345,l),
(715,335,l),
(25,335,l),
(25,0,l),
(725,0,l)
);
}
);
width = 750;
},
{
layerId = "44B3CF47-E9D7-4BB1-BF2E-5EBDFF91057D";
shapes = (
{
closed = 1;
nodes = (
(725,700,l),
(25,700,l),
(25,365,l),
(35,365,l),
(35,355,l),
(25,355,l),
(25,345,l),
(35,345,l),
(35,335,l),
(25,335,l),
(25,0,l),
(725,0,l)
);
}
);
width = 750;
},
{
layerId = "270F6D2A-3FB5-4830-B0FD-3E22F3EDE89C";
shapes = (
{
closed = 1;
nodes = (
(725,700,l),
(25,700,l),
(25,500,l),
(625,500,l),
(625,400,l),
(25,400,l),
(25,300,l),
(625,300,l),
(625,200,l),
(25,200,l),
(25,0,l),
(725,0,l)
);
}
);
width = 750;
},
{
layerId = "0A489E87-4003-4383-ABB5-6AA2A9FB3485";
shapes = (
{
closed = 1;
nodes = (
(725,700,l),
(25,700,l),
(25,500,l),
(125,500,l),
(125,400,l),
(25,400,l),
(25,300,l),
(125,300,l),
(125,200,l),
(25,200,l),
(25,0,l),
(725,0,l)
);
}
);
width = 750;
},
{
layerId = "1C34913A-ED8B-4606-9734-2876B967C373";
shapes = (
{
closed = 1;
nodes = (
(725,700,l),
(25,700,l),
(25,600,l),
(125,600,l),
(125,400,l),
(25,400,l),
(25,300,l),
(125,300,l),
(125,100,l),
(25,100,l),
(25,0,l),
(725,0,l)
);
}
);
width = 750;
}
);
unicode = 51;
},
{
glyphname = four;
lastChange = "2023-09-13 00:48:30 +0000";
layers = (
{
layerId = m01;
shapes = (
{
closed = 1;
nodes = (
(380,700,l),
(380,10,l),
(370,10,l),
(370,700,l),
(25,700,l),
(25,690,l),
(35,690,l),
(35,0,l),
(725,0,l),
(725,700,l)
);
}
);
width = 750;
},
{
layerId = "17BBE581-D9AE-4474-AE3B-3DD1F1A1E441";
shapes = (
{
closed = 1;
nodes = (
(715,700,l),
(715,690,l),
(35,690,l),
(35,700,l),
(25,700,l),
(25,20,l),
(715,20,l),
(715,0,l),
(725,0,l),
(725,700,l)
);
}
);
width = 750;
},
{
layerId = "44B3CF47-E9D7-4BB1-BF2E-5EBDFF91057D";
shapes = (
{
closed = 1;
nodes = (
(380,700,l),
(380,690,l),
(370,690,l),
(370,700,l),
(25,700,l),
(25,20,l),
(35,20,l),
(35,0,l),
(725,0,l),
(725,700,l)
);
}
);
width = 750;
},
{
layerId = "270F6D2A-3FB5-4830-B0FD-3E22F3EDE89C";
shapes = (
{
closed = 1;
nodes = (
(625,700,l),
(625,600,l),
(125,600,l),
(125,700,l),
(25,700,l),
(25,200,l),
(625,200,l),
(625,0,l),
(725,0,l),
(725,700,l)
);
}
);
width = 750;
},
{
layerId = "0A489E87-4003-4383-ABB5-6AA2A9FB3485";
shapes = (
{
closed = 1;
nodes = (
(425,700,l),
(425,600,l),
(325,600,l),
(325,700,l),
(25,700,l),
(25,200,l),
(125,200,l),
(125,0,l),
(725,0,l),
(725,700,l)
);
}
);
width = 750;
},
{
layerId = "1C34913A-ED8B-4606-9734-2876B967C373";
shapes = (
{
closed = 1;
nodes = (
(425,700,l),
(425,100,l),
(325,100,l),
(325,700,l),
(25,700,l),
(25,600,l),
(125,600,l),
(125,0,l),
(725,0,l),
(725,700,l)
);
}
);
width = 750;
}
);
unicode = 52;
},
{
glyphname = five;
lastChange = "2023-09-13 00:29:08 +0000";
layers = (
{
layerId = m01;
shapes = (
{
closed = 1;
nodes = (
(725,0,l),
(725,355,l),
(715,355,l),
(715,690,l),
(725,690,l),
(725,700,l),
(25,700,l),
(25,345,l),
(35,345,l),
(35,10,l),
(25,10,l),
(25,0,l)
);
}
);
width = 750;
},
{
layerId = "17BBE581-D9AE-4474-AE3B-3DD1F1A1E441";
shapes = (
{
closed = 1;
nodes = (
(725,0,l),
(725,355,l),
(35,355,l),
(35,365,l),
(725,365,l),
(725,700,l),
(25,700,l),
(25,345,l),
(715,345,l),
(715,335,l),
(25,335,l),
(25,0,l)
);
}
);
width = 750;
},
{
layerId = "44B3CF47-E9D7-4BB1-BF2E-5EBDFF91057D";
shapes = (
{
closed = 1;
nodes = (
(725,0,l),
(725,355,l),
(715,355,l),
(715,365,l),
(725,365,l),
(725,700,l),
(25,700,l),
(25,345,l),
(35,345,l),
(35,335,l),
(25,335,l),
(25,0,l)
);
}
);
width = 750;
},
{
layerId = "270F6D2A-3FB5-4830-B0FD-3E22F3EDE89C";
shapes = (
{
closed = 1;
nodes = (
(725,0,l),
(725,400,l),
(125,400,l),
(125,500,l),
(725,500,l),
(725,700,l),
(25,700,l),
(25,300,l),
(625,300,l),
(625,200,l),
(25,200,l),
(25,0,l)
);
}
);
width = 750;
},
{
layerId = "0A489E87-4003-4383-ABB5-6AA2A9FB3485";
shapes = (
{
closed = 1;
nodes = (
(725,0,l),
(725,400,l),
(625,400,l),
(625,500,l),
(725,500,l),
(725,700,l),
(25,700,l),
(25,300,l),
(125,300,l),
(125,200,l),
(25,200,l),
(25,0,l)
);
}
);
width = 750;
},
{
layerId = "1C34913A-ED8B-4606-9734-2876B967C373";
shapes = (
{
closed = 1;
nodes = (
(725,0,l),
(725,400,l),
(625,400,l),
(625,600,l),
(725,600,l),
(725,700,l),
(25,700,l),
(25,300,l),
(125,300,l),
(125,100,l),
(25,100,l),
(25,0,l)
);
}
);
width = 750;
}
);
unicode = 53;
},
{
glyphname = six;
lastChange = "2023-09-13 00:44:39 +0000";
layers = (
{
layerId = m01;
shapes = (
{
closed = 1;
nodes = (
(725,0,l),
(725,355,l),
(715,355,l),
(715,690,l),
(725,690,l),
(725,700,l),
(25,700,l),
(25,0,l)
);
},
{
closed = 1;
nodes = (
(370,345,l),
(380,345,l),
(380,10,l),
(370,10,l)
);
}
);
width = 750;
},
{
layerId = "17BBE581-D9AE-4474-AE3B-3DD1F1A1E441";
shapes = (
{
closed = 1;
nodes = (
(725,0,l),
(725,355,l),
(35,355,l),
(35,365,l),
(725,365,l),
(725,700,l),
(25,700,l),
(25,0,l)
);
},
{
closed = 1;
nodes = (
(35,345,l),
(715,345,l),
(715,335,l),
(35,335,l)
);
}
);
width = 750;
},
{
layerId = "44B3CF47-E9D7-4BB1-BF2E-5EBDFF91057D";
shapes = (
{
closed = 1;
nodes = (
(725,0,l),
(725,355,l),
(715,355,l),
(715,365,l),
(725,365,l),
(725,700,l),
(25,700,l),
(25,0,l)
);
},
{
closed = 1;
nodes = (
(370,345,l),
(380,345,l),
(380,335,l),
(370,335,l)
);
}
);
width = 750;
},
{
layerId = "270F6D2A-3FB5-4830-B0FD-3E22F3EDE89C";
shapes = (
{
closed = 1;
nodes = (
(725,0,l),
(725,400,l),
(125,400,l),
(125,500,l),
(725,500,l),
(725,700,l),
(25,700,l),
(25,0,l)
);
},
{
closed = 1;
nodes = (
(125,300,l),
(625,300,l),
(625,200,l),
(125,200,l)
);
}
);
width = 750;
},
{
layerId = "0A489E87-4003-4383-ABB5-6AA2A9FB3485";
shapes = (
{
closed = 1;
nodes = (
(725,0,l),
(725,400,l),
(625,400,l),
(625,500,l),
(725,500,l),
(725,700,l),
(25,700,l),
(25,0,l)
);
},
{
closed = 1;
nodes = (
(325,300,l),
(425,300,l),
(425,200,l),
(325,200,l)
);
}
);
width = 750;
},
{
layerId = "1C34913A-ED8B-4606-9734-2876B967C373";
shapes = (
{
closed = 1;
nodes = (
(725,0,l),
(725,400,l),
(625,400,l),
(625,600,l),
(725,600,l),
(725,700,l),
(25,700,l),
(25,0,l)
);
},
{
closed = 1;
nodes = (
(325,300,l),
(425,300,l),
(425,100,l),
(325,100,l)
);
}
);
width = 750;
}
);
unicode = 54;
},
{
glyphname = seven;
lastChange = "2023-09-13 00:45:13 +0000";
layers = (
{
layerId = m01;
shapes = (
{
closed = 1;
nodes = (
(715,0,l),
(715,690,l),
(725,690,l),
(725,700,l),
(25,700,l),
(25,690,l),
(35,690,l),
(35,10,l),
(25,10,l),
(25,0,l)
);
}
);
width = 750;
},
{
layerId = "17BBE581-D9AE-4474-AE3B-3DD1F1A1E441";
shapes = (
{
closed = 1;
nodes = (
(35,0,l),
(35,20,l),
(725,20,l),
(725,700,l),
(25,700,l),
(25,355,l),
(715,355,l),
(715,345,l),
(25,345,l),
(25,0,l)
);
}
);
width = 750;
},
{
layerId = "44B3CF47-E9D7-4BB1-BF2E-5EBDFF91057D";
shapes = (
{
closed = 1;
nodes = (
(715,0,l),
(715,20,l),
(725,20,l),
(725,700,l),
(25,700,l),
(25,355,l),
(35,355,l),
(35,345,l),
(25,345,l),
(25,0,l)
);
}
);
width = 750;
},
{
layerId = "270F6D2A-3FB5-4830-B0FD-3E22F3EDE89C";
shapes = (
{
closed = 1;
nodes = (
(125,0,l),
(125,200,l),
(725,200,l),
(725,700,l),
(25,700,l),
(25,400,l),
(625,400,l),
(625,300,l),
(25,300,l),
(25,0,l)
);
}
);
width = 750;
},
{
layerId = "0A489E87-4003-4383-ABB5-6AA2A9FB3485";
shapes = (
{
closed = 1;
nodes = (
(625,0,l),
(625,200,l),
(725,200,l),
(725,700,l),
(25,700,l),
(25,400,l),
(125,400,l),
(125,300,l),
(25,300,l),
(25,0,l)
);
}
);
width = 750;
},
{
layerId = "1C34913A-ED8B-4606-9734-2876B967C373";
shapes = (
{
closed = 1;
nodes = (
(625,0,l),
(625,300,l),
(725,300,l),
(725,700,l),
(25,700,l),
(25,600,l),
(125,600,l),
(125,300,l),
(25,300,l),
(25,0,l)
);
}
);
width = 750;
}
);
unicode = 55;
},
{
glyphname = eight;
lastChange = "2023-09-13 00:33:25 +0000";
layers = (
{
layerId = m01;
shapes = (
{
closed = 1;
nodes = (
(725,0,l),
(725,700,l),
(25,700,l),
(25,0,l)
);
},
{
closed = 1;
nodes = (
(370,345,l),
(380,345,l),
(380,10,l),
(370,10,l)
);
},
{
closed = 1;
nodes = (
(370,690,l),
(380,690,l),
(380,355,l),
(370,355,l)
);
}
);
width = 750;
},
{
layerId = "17BBE581-D9AE-4474-AE3B-3DD1F1A1E441";
shapes = (
{
closed = 1;
nodes = (
(725,0,l),
(725,700,l),
(25,700,l),
(25,0,l)
);
},
{
closed = 1;
nodes = (
(35,345,l),
(715,345,l),
(715,335,l),
(35,335,l)
);
},
{
closed = 1;
nodes = (
(35,365,l),
(715,365,l),
(715,355,l),
(35,355,l)
);
}
);
width = 750;
},
{
layerId = "44B3CF47-E9D7-4BB1-BF2E-5EBDFF91057D";
shapes = (
{
closed = 1;
nodes = (
(725,0,l),
(725,700,l),
(25,700,l),
(25,0,l)
);
},
{
closed = 1;
nodes = (
(370,345,l),
(380,345,l),
(380,335,l),
(370,335,l)
);
},
{
closed = 1;
nodes = (
(370,365,l),
(380,365,l),
(380,355,l),
(370,355,l)
);
}
);
width = 750;
},
{
layerId = "270F6D2A-3FB5-4830-B0FD-3E22F3EDE89C";
shapes = (
{
closed = 1;
nodes = (
(725,0,l),
(725,700,l),
(25,700,l),
(25,0,l)
);
},
{
closed = 1;
nodes = (
(125,300,l),
(625,300,l),
(625,200,l),
(125,200,l)
);
},
{
closed = 1;
nodes = (
(125,500,l),
(625,500,l),
(625,400,l),
(125,400,l)
);
}
);
width = 750;
},
{
layerId = "0A489E87-4003-4383-ABB5-6AA2A9FB3485";
shapes = (
{
closed = 1;
nodes = (
(725,0,l),
(725,700,l),
(25,700,l),
(25,0,l)
);
},
{
closed = 1;
nodes = (
(325,300,l),
(425,300,l),
(425,200,l),
(325,200,l)
);
},
{
closed = 1;
nodes = (
(325,500,l),
(425,500,l),
(425,400,l),
(325,400,l)
);
}
);
width = 750;
},
{
layerId = "1C34913A-ED8B-4606-9734-2876B967C373";
shapes = (
{
closed = 1;
nodes = (
(725,0,l),
(725,700,l),
(25,700,l),
(25,0,l)
);
},
{
closed = 1;
nodes = (
(325,300,l),
(425,300,l),
(425,100,l),
(325,100,l)
);
},
{
closed = 1;
nodes = (
(325,600,l),
(425,600,l),
(425,400,l),
(325,400,l)
);
}
);
width = 750;
}
);
unicode = 56;
},
{
glyphname = nine;
lastChange = "2023-09-13 00:44:17 +0000";
layers = (
{
layerId = m01;
shapes = (
{
closed = 1;
nodes = (
(25,700,l),
(25,345,l),
(35,345,l),
(35,10,l),
(25,10,l),
(25,0,l),
(725,0,l),
(725,700,l)
);
},
{
closed = 1;
nodes = (
(380,355,l),
(370,355,l),
(370,690,l),
(380,690,l)
);
}
);
width = 750;
},
{
layerId = "17BBE581-D9AE-4474-AE3B-3DD1F1A1E441";
shapes = (
{
closed = 1;
nodes = (
(25,700,l),
(25,345,l),
(715,345,l),
(715,335,l),
(25,335,l),
(25,0,l),
(725,0,l),
(725,700,l)
);
},
{
closed = 1;
nodes = (
(715,355,l),
(35,355,l),
(35,365,l),
(715,365,l)
);
}
);
width = 750;
},
{
layerId = "44B3CF47-E9D7-4BB1-BF2E-5EBDFF91057D";
shapes = (
{
closed = 1;
nodes = (
(25,700,l),
(25,345,l),
(35,345,l),
(35,335,l),
(25,335,l),
(25,0,l),
(725,0,l),
(725,700,l)
);
},
{
closed = 1;
nodes = (
(380,355,l),
(370,355,l),
(370,365,l),
(380,365,l)
);
}
);
width = 750;
},
{
layerId = "270F6D2A-3FB5-4830-B0FD-3E22F3EDE89C";
shapes = (
{
closed = 1;
nodes = (
(25,700,l),
(25,300,l),
(625,300,l),
(625,200,l),
(25,200,l),
(25,0,l),
(725,0,l),
(725,700,l)
);
},
{
closed = 1;
nodes = (
(625,400,l),
(125,400,l),
(125,500,l),
(625,500,l)
);
}
);
width = 750;
},
{
layerId = "0A489E87-4003-4383-ABB5-6AA2A9FB3485";
shapes = (
{
closed = 1;
nodes = (
(25,700,l),
(25,300,l),
(125,300,l),
(125,200,l),
(25,200,l),
(25,0,l),
(725,0,l),
(725,700,l)
);
},
{
closed = 1;
nodes = (
(425,400,l),
(325,400,l),
(325,500,l),
(425,500,l)
);
}
);
width = 750;
},
{
layerId = "1C34913A-ED8B-4606-9734-2876B967C373";
shapes = (
{
closed = 1;
nodes = (
(25,700,l),
(25,300,l),
(125,300,l),
(125,100,l),
(25,100,l),
(25,0,l),
(725,0,l),
(725,700,l)
);
},
{
closed = 1;
nodes = (
(425,400,l),
(325,400,l),
(325,600,l),
(425,600,l)
);
}
);
width = 750;
}
);
unicode = 57;
},
